<svg xmlns="http://www.w3.org/2000/svg" version="1.1" xmlns:xlink="http://www.w3.org/1999/xlink" xmlns:svgjs="http://svgjs.dev/svgjs" width="1500" height="878" viewBox="0 0 1500 878"><g transform="matrix(1,0,0,1,-0.9090909090909918,-0.7057402925517522)"><svg viewBox="0 0 396 232" data-background-color="#f4efec" preserveAspectRatio="xMidYMid meet" height="878" width="1500" xmlns="http://www.w3.org/2000/svg" xmlns:xlink="http://www.w3.org/1999/xlink"><g id="tight-bounds" transform="matrix(1,0,0,1,0.2400000000000091,0.18648262855582232)"><svg viewBox="0 0 395.52 231.64495984826934" height="231.64495984826934" width="395.52"><g><svg viewBox="0 0 395.52000000000004 231.64495984826937" height="231.64495984826934" width="395.52"><g transform="matrix(1,0,0,1,0,119.46010522797337)"><svg viewBox="0 0 395.52000000000004 112.18485462029598" height="112.18485462029598" width="395.52000000000004"><g id="textblocktransform"><svg viewBox="0 0 395.52000000000004 112.18485462029598" height="112.18485462029598" width="395.52000000000004" id="textblock"><g><svg viewBox="0 0 395.52000000000004 112.18485462029598" height="112.18485462029598" width="395.52000000000004"><g transform="matrix(1,0,0,1,0,0)"><svg width="395.52000000000004" viewBox="-3.3912800000000027 -16.79672 155.45031720353055 44.09176" height="112.18485462029598" data-palette-color="#5201fe"><path d="M27.791 22.333l-4.479-1.356-0.967-12.82-13.342-4.039-7.915 10.131-4.479-1.356 23.584-29.69 4.441 1.345zM20.912-11.198l-9.438 12.125 10.585 3.205zM52.816 0.707l1.572-9.734 4.166 0.673-4.092 25.342c-0.458 2.837-0.719 4.706-0.784 5.607v0c-0.098 1.112-0.101 2.32-0.008 3.625v0l-4.161 0.239c-0.131-0.946-0.188-1.891-0.171-2.833v0c0.024-1.151 0.075-2.034 0.154-2.649v0l-0.355-0.058c-1.123 1.601-2.258 2.732-3.404 3.391v0c-1.401 0.854-3.003 1.136-4.806 0.845v0c-1.58-0.255-2.887-0.817-3.921-1.687-1.04-0.877-1.777-1.979-2.212-3.304-0.441-1.327-0.694-2.749-0.76-4.266-0.059-1.515 0.055-3.162 0.342-4.939v0c0.323-2.001 0.821-3.767 1.494-5.299 0.665-1.527 1.526-2.84 2.581-3.939 1.054-1.093 2.353-1.859 3.896-2.299 1.543-0.44 3.282-0.503 5.217-0.191v0c1.52 0.245 3.271 0.737 5.252 1.476zM50.406 15.634v0l1.817-11.254c-1.745-0.775-3.385-1.286-4.919-1.534v0c-1.303-0.21-2.467-0.155-3.491 0.166-1.018 0.322-1.863 0.871-2.535 1.647-0.672 0.776-1.216 1.678-1.631 2.704-0.409 1.028-0.72 2.203-0.935 3.526v0c-0.146 0.902-0.254 1.701-0.326 2.399-0.071 0.691-0.118 1.443-0.141 2.256-0.023 0.813 0.031 1.521 0.163 2.124 0.132 0.602 0.33 1.174 0.594 1.716 0.258 0.535 0.64 0.971 1.146 1.31 0.499 0.337 1.101 0.563 1.805 0.676v0c1.711 0.276 3.309-0.168 4.794-1.333v0c1.063-0.855 2.283-2.322 3.659-4.403zM68.057 7.718l0.22 0.01c0.548-0.992 1.129-1.882 1.741-2.671 0.613-0.795 1.285-1.465 2.015-2.008v0c0.656-0.527 1.372-0.907 2.149-1.142 0.784-0.241 1.666-0.341 2.645-0.301v0c0.326 0.013 0.705 0.046 1.137 0.097 0.432 0.051 0.842 0.125 1.232 0.221v0c-0.1 0.817-0.212 1.583-0.336 2.298-0.116 0.716-0.263 1.437-0.439 2.164v0c-0.813-0.18-1.558-0.318-2.235-0.413-0.67-0.094-1.31-0.104-1.921-0.029v0c-0.725 0.103-1.361 0.317-1.908 0.641-0.541 0.331-1.05 0.777-1.526 1.338-0.47 0.561-0.935 1.236-1.395 2.024-0.453 0.795-0.955 1.705-1.504 2.731v0l-0.605 14.617-4.216-0.174 0.649-15.697c0.043-1.032 0.067-1.939 0.072-2.719 0.013-0.787-0.003-1.538-0.047-2.254-0.051-0.709-0.135-1.417-0.252-2.122-0.118-0.699-0.279-1.476-0.484-2.332v0c0.694-0.151 1.373-0.287 2.038-0.406 0.665-0.119 1.344-0.231 2.036-0.337v0c0.199 0.662 0.359 1.249 0.478 1.762 0.119 0.512 0.208 1.009 0.268 1.492 0.066 0.49 0.109 0.985 0.129 1.487 0.02 0.495 0.039 1.069 0.059 1.723zM92.387 0.593v0c0.805-0.057 1.644-0.054 2.517 0.011 0.866 0.059 1.727 0.228 2.583 0.508v0c0.857 0.3 1.679 0.729 2.468 1.287 0.788 0.559 1.5 1.307 2.134 2.244v0c0.643 0.957 1.177 2.118 1.602 3.485 0.425 1.373 0.706 3.021 0.844 4.943v0c0.137 1.928 0.093 3.599-0.134 5.012-0.226 1.42-0.591 2.639-1.093 3.657v0c-0.495 1.031-1.092 1.886-1.793 2.564-0.701 0.671-1.455 1.206-2.261 1.605v0c-0.806 0.418-1.633 0.718-2.483 0.898-0.855 0.188-1.686 0.311-2.49 0.368v0c-0.778 0.055-1.6 0.051-2.467-0.014-0.866-0.059-1.728-0.238-2.585-0.538v0c-0.855-0.28-1.671-0.703-2.446-1.269-0.776-0.573-1.485-1.334-2.128-2.285v0c-0.642-0.937-1.175-2.092-1.6-3.465-0.425-1.367-0.706-3.014-0.844-4.942v0c-0.137-1.922-0.092-3.593 0.134-5.013 0.227-1.413 0.591-2.639 1.092-3.676v0c0.502-1.018 1.097-1.859 1.785-2.524 0.688-0.664 1.435-1.205 2.24-1.623v0c0.807-0.398 1.632-0.688 2.475-0.868 0.836-0.187 1.652-0.308 2.45-0.365zM92.633 4.044v0c-0.924 0.066-1.788 0.274-2.592 0.626-0.804 0.351-1.489 0.915-2.055 1.69v0c-0.585 0.797-1.019 1.837-1.302 3.121-0.283 1.283-0.354 2.909-0.214 4.877v0c0.139 1.955 0.44 3.551 0.903 4.788 0.462 1.237 1.039 2.202 1.73 2.894v0c0.671 0.701 1.43 1.165 2.275 1.392 0.845 0.227 1.73 0.308 2.654 0.242v0c0.951-0.068 1.835-0.274 2.652-0.62 0.818-0.346 1.519-0.914 2.105-1.704v0c0.579-0.783 1.01-1.82 1.292-3.109 0.276-1.29 0.344-2.912 0.204-4.867v0c-0.14-1.968-0.438-3.568-0.893-4.799-0.462-1.23-1.036-2.199-1.721-2.905v0c-0.691-0.686-1.465-1.145-2.324-1.378-0.859-0.233-1.764-0.315-2.714-0.248zM115.931-2.732v0c1.315-0.257 2.664-0.377 4.046-0.362 1.375 0.017 2.679 0.153 3.911 0.409v0c-0.128 0.562-0.261 1.114-0.4 1.657-0.145 0.545-0.315 1.084-0.51 1.618v0c-0.43-0.079-0.906-0.153-1.429-0.221-0.521-0.061-1.062-0.098-1.621-0.111-0.558-0.007-1.129 0.01-1.712 0.048-0.583 0.039-1.15 0.112-1.7 0.22v0c-0.589 0.115-1.149 0.289-1.681 0.522-0.527 0.225-0.976 0.516-1.347 0.874-0.373 0.351-0.647 0.775-0.822 1.271-0.17 0.488-0.19 1.063-0.061 1.723v0c0.132 0.674 0.385 1.209 0.761 1.604 0.377 0.402 0.845 0.708 1.402 0.919 0.556 0.204 1.188 0.345 1.896 0.425 0.708 0.079 1.456 0.134 2.243 0.163v0c1.227 0.059 2.38 0.171 3.458 0.334 1.086 0.169 2.054 0.469 2.906 0.9 0.845 0.433 1.56 1.034 2.145 1.802 0.585 0.769 0.999 1.778 1.243 3.028v0c0.257 1.315 0.216 2.498-0.122 3.55-0.333 1.043-0.884 1.962-1.653 2.757-0.776 0.79-1.728 1.448-2.855 1.974-1.126 0.532-2.362 0.93-3.71 1.192v0c-0.707 0.138-1.442 0.234-2.206 0.288-0.763 0.06-1.527 0.077-2.292 0.05-0.759-0.028-1.516-0.091-2.269-0.189-0.754-0.104-1.47-0.24-2.147-0.406v0c0.122-0.56 0.259-1.107 0.413-1.64 0.153-0.539 0.319-1.078 0.5-1.615v0c0.568 0.127 1.169 0.23 1.803 0.31 0.635 0.087 1.277 0.141 1.927 0.164 0.656 0.021 1.297 0.015 1.922-0.019 0.626-0.027 1.221-0.096 1.784-0.205v0c0.707-0.138 1.378-0.354 2.013-0.648 0.63-0.286 1.173-0.653 1.629-1.102 0.456-0.449 0.788-0.976 0.996-1.58 0.202-0.603 0.227-1.291 0.076-2.063v0c-0.14-0.72-0.403-1.283-0.788-1.69-0.385-0.407-0.857-0.719-1.416-0.936-0.559-0.217-1.191-0.362-1.898-0.435-0.706-0.066-1.446-0.115-2.219-0.147v0c-1.173-0.056-2.294-0.164-3.364-0.322-1.077-0.157-2.043-0.447-2.901-0.871-0.857-0.424-1.586-1.012-2.188-1.763-0.603-0.759-1.027-1.763-1.27-3.013v0c-0.229-1.171-0.187-2.229 0.124-3.172 0.318-0.945 0.829-1.772 1.534-2.48 0.699-0.7 1.556-1.285 2.571-1.755 1.014-0.476 2.107-0.829 3.278-1.057zM137.142-8.388v0c1.278-0.402 2.605-0.672 3.98-0.812 1.369-0.137 2.679-0.147 3.932-0.03v0c-0.065 0.572-0.135 1.136-0.213 1.691-0.083 0.557-0.192 1.112-0.326 1.665v0c-0.436-0.031-0.917-0.051-1.444-0.06-0.525-0.003-1.066 0.021-1.624 0.07-0.555 0.056-1.121 0.136-1.696 0.24-0.575 0.104-1.13 0.24-1.664 0.408v0c-0.572 0.18-1.11 0.415-1.612 0.706-0.498 0.282-0.912 0.622-1.242 1.02-0.331 0.391-0.556 0.842-0.675 1.354-0.114 0.504-0.07 1.077 0.132 1.72v0c0.206 0.655 0.518 1.158 0.936 1.509 0.42 0.357 0.918 0.609 1.495 0.756 0.575 0.141 1.219 0.211 1.932 0.21 0.713 0 1.462-0.03 2.247-0.088v0c1.226-0.078 2.384-0.096 3.474-0.054 1.098 0.046 2.094 0.236 2.989 0.57 0.888 0.336 1.666 0.853 2.332 1.552 0.667 0.699 1.191 1.656 1.574 2.87v0c0.402 1.278 0.493 2.459 0.274 3.54-0.214 1.074-0.659 2.049-1.334 2.925-0.683 0.872-1.556 1.632-2.617 2.28-1.059 0.654-2.244 1.188-3.553 1.6v0c-0.687 0.216-1.407 0.393-2.16 0.532-0.751 0.145-1.509 0.247-2.273 0.306-0.758 0.057-1.516 0.078-2.275 0.065-0.761-0.019-1.487-0.074-2.18-0.164v0c0.058-0.57 0.134-1.129 0.228-1.675 0.092-0.553 0.197-1.107 0.316-1.662v0c0.579 0.063 1.188 0.098 1.827 0.108 0.641 0.015 1.285-0.002 1.933-0.053 0.655-0.052 1.291-0.13 1.908-0.233 0.619-0.097 1.203-0.231 1.75-0.403v0c0.687-0.216 1.33-0.505 1.928-0.868 0.594-0.355 1.093-0.78 1.496-1.278 0.403-0.497 0.674-1.057 0.813-1.681 0.133-0.622 0.081-1.308-0.155-2.058v0c-0.22-0.7-0.544-1.23-0.972-1.592-0.428-0.362-0.932-0.619-1.511-0.773-0.579-0.153-1.224-0.227-1.935-0.219-0.709 0.013-1.449 0.047-2.222 0.101v0c-1.171 0.075-2.298 0.093-3.379 0.056-1.087-0.035-2.081-0.216-2.979-0.542-0.899-0.325-1.689-0.828-2.372-1.508-0.684-0.686-1.217-1.637-1.599-2.851v0c-0.358-1.138-0.435-2.194-0.23-3.167 0.211-0.975 0.626-1.853 1.247-2.635 0.616-0.774 1.403-1.451 2.359-2.032 0.955-0.587 2.001-1.059 3.14-1.416z" opacity="1" transform="matrix(1,0,0,1,0,0)" fill="#5201fe" class="wordmark-text-0" data-fill-palette-color="primary" id="text-0"></path></svg></g></svg></g></svg></g></svg></g><g transform="matrix(1,0,0,1,146.32382260681857,0)"><svg viewBox="0 0 102.87235478636292 112.18485462029598" height="112.18485462029598" width="102.87235478636292"><g><svg xmlns="http://www.w3.org/2000/svg" xmlns:xlink="http://www.w3.org/1999/xlink" version="1.1" x="0" y="0" viewBox="4 0.059941652059369216 91.64400287843449 99.94005834794064" enable-background="new 0 0 100 100" xml:space="preserve" height="112.18485462029598" width="102.87235478636292" class="icon-icon-0" data-fill-palette-color="accent" id="icon-0"><path fill="#1700ff" d="M50.122 41.041C57.991 41.041 64.373 34.652 64.373 26.788 64.373 18.913 57.99 12.538 50.122 12.538S35.873 18.912 35.873 26.788C35.873 34.652 42.254 41.041 50.122 41.041" data-fill-palette-color="accent"></path><path fill="#1700ff" d="M27.8 100V87.354L15.119 90.883A8.1 8.1 0 0 1 12.12 91.46C7.636 91.461 4 87.814 4 83.336 4 81.648 4.512 80.087 5.387 78.792L25.729 50.899C27.938 47.873 31.022 44.503 37.526 44.503H62.12C68.621 44.503 71.707 47.874 73.913 50.899L94.254 78.792A8.1 8.1 0 0 1 95.644 83.336C95.644 87.815 92.004 91.461 87.524 91.461A8.1 8.1 0 0 1 84.525 90.884L71.839 87.355V100zM49.822 91.165L66.255 85.728 65.885 85.624C54.546 82.288 58.961 67.308 70.297 70.652L71.847 71.173V54.258L49.822 61.453 27.798 54.258V71.174L29.34 70.653C40.685 67.308 45.098 82.289 33.754 85.627L33.391 85.729z" data-fill-palette-color="accent"></path><g fill="#1700ff" data-fill-palette-color="accent"><path fill="#1700ff" d="M14.6 36.034C15.106 37.121 16.325 37.823 17.705 37.823H17.708C19.086 37.823 20.305 37.121 20.812 36.034L21.163 35.282H14.248z" data-fill-palette-color="accent"></path><path fill="#1700ff" d="M21.483 31.167L13.959 31.166C13.445 31.167 13.132 31.393 12.961 31.582 12.743 31.822 12.624 32.149 12.625 32.501 12.624 32.878 12.758 33.222 13.001 33.465 13.244 33.709 13.576 33.838 13.961 33.838H21.483C22.27 33.838 22.819 33.289 22.819 32.502 22.817 31.716 22.269 31.167 21.483 31.167" data-fill-palette-color="accent"></path><path fill="#1700ff" d="M22.519 27.223H12.923C12.137 27.225 11.589 27.774 11.589 28.56 11.589 29.347 12.138 29.896 12.923 29.896H22.518C23.305 29.896 23.854 29.346 23.854 28.561A1.35 1.35 0 0 0 23.478 27.596C23.234 27.352 22.903 27.223 22.519 27.223" data-fill-palette-color="accent"></path><path fill="#1700ff" d="M26.435 3.586A12 12 0 0 0 17.901 0.06C11.262 0.06 5.86 5.461 5.859 12.1 5.86 15.35 7.208 18.51 9.516 20.728 10.113 21.445 10.483 22.413 10.608 25.239 10.649 26.134 11.296 26.759 12.266 26.759H12.271C12.719 26.739 13.119 26.561 13.399 26.256 13.677 25.953 13.813 25.552 13.792 25.097 13.646 21.821 13.125 20.055 11.833 18.543 10.062 16.855 9.047 14.507 9.047 12.101 9.047 7.219 13.018 3.247 17.898 3.247 22.795 3.247 26.778 7.22 26.778 12.101 26.778 14.507 25.762 16.856 23.954 18.585 22.7 20.055 22.18 21.82 22.034 25.099 21.993 26.021 22.633 26.72 23.553 26.761L23.636 26.763C24.527 26.763 25.177 26.137 25.217 25.24 25.343 22.415 25.713 21.447 26.27 20.772A12.1 12.1 0 0 0 29.966 12.101 11.97 11.97 0 0 0 26.435 3.586M23.633 26.225L23.634 26.233z" data-fill-palette-color="accent"></path></g></svg></g></svg></g><g></g></svg></g><defs></defs></svg><rect width="395.52" height="231.64495984826934" fill="none" stroke="none" visibility="hidden"></rect></g></svg></g></svg>